<svg xmlns="http://www.w3.org/2000/svg" width="32" height="32" viewBox="0 0 32 32">
    <path fill-rule="evenodd" d="M19.47 11.75c-.43 0-.78.35-.78.78 0 .431.35.78.78.78.43 0 .78-.349.78-.78 0-.43-.35-.78-.78-.78M16 18.167c-1.197 0-2.166-.97-2.166-2.167 0-1.196.969-2.167 2.166-2.167s2.167.97 2.167 2.167c0 1.197-.97 2.167-2.167 2.167m0-5.505c-1.843 0-3.338 1.494-3.338 3.338 0 1.843 1.495 3.338 3.338 3.338s3.338-1.495 3.338-3.338c0-1.844-1.495-3.338-3.338-3.338m5.291 5.965c-.029.633-.135.977-.224 1.206-.118.304-.258.52-.486.749-.228.226-.444.367-.748.485-.229.089-.572.195-1.206.224-.685.031-.891.038-2.627.038-1.735 0-1.942-.007-2.627-.038-.633-.029-.977-.135-1.207-.224-.303-.118-.52-.259-.747-.485-.227-.23-.368-.445-.486-.749-.089-.229-.195-.573-.224-1.206-.031-.686-.038-.892-.038-2.627 0-1.735.007-1.941.038-2.627.029-.633.135-.977.224-1.206.118-.304.259-.521.486-.748.228-.227.444-.368.747-.487.23-.088.574-.194 1.207-.223.685-.031.892-.038 2.627-.038 1.736 0 1.941.007 2.627.038.634.03.977.135 1.206.223.304.119.52.26.748.487.228.227.368.444.486.748.09.229.195.573.224 1.206.032.686.038.892.038 2.627 0 1.735-.006 1.941-.038 2.627m1.17-5.307c-.031-.692-.141-1.164-.302-1.578-.166-.427-.388-.79-.75-1.15-.361-.362-.724-.585-1.151-.75-.414-.162-.886-.271-1.578-.303-.693-.031-.915-.039-2.68-.039-1.765 0-1.986.008-2.68.039-.692.032-1.165.141-1.578.303-.427.165-.79.388-1.151.75-.362.36-.584.723-.75 1.15-.16.414-.27.886-.302 1.578-.031.693-.039.915-.039 2.68 0 1.765.008 1.987.039 2.68.032.691.141 1.164.302 1.578.166.427.388.79.75 1.15.361.363.724.585 1.151.75.413.16.886.271 1.578.303.694.031.915.039 2.68.039 1.765 0 1.987-.008 2.68-.04.692-.03 1.164-.141 1.578-.301.427-.166.79-.388 1.151-.75.362-.361.584-.724.75-1.151.16-.414.27-.887.302-1.578.032-.693.039-.915.039-2.68 0-1.765-.007-1.987-.039-2.68"/>
</svg>
