<svg xmlns="http://www.w3.org/2000/svg" xmlns:xlink="http://www.w3.org/1999/xlink" width="32" height="32" viewBox="0 0 32 32">
    <defs>
        <path id="prefix__a" d="M14.43 18.255V13.85l3.958 2.156-3.958 2.249zm8.92-5.382s-.146-1.078-.596-1.552c-.57-.623-1.21-.626-1.503-.663-2.099-.158-5.248-.158-5.248-.158h-.006s-3.15 0-5.248.158c-.293.037-.932.04-1.503.663-.45.474-.596 1.552-.596 1.552s-.15 1.266-.15 2.531v1.187c0 1.265.15 2.531.15 2.531s.146 1.078.596 1.552c.57.623 1.32.604 1.654.67 1.2.119 5.1.156 5.1.156s3.152-.005 5.25-.163c.294-.037.933-.04 1.504-.663.45-.474.596-1.552.596-1.552s.15-1.266.15-2.53v-1.188c0-1.265-.15-2.53-.15-2.53z"/>
    </defs>
    <g fill="none" fill-rule="evenodd">
        <path d="M0 0H32V32H0z"/>
        <path d="M8 8H24V24H8z"/>
        <use fill="#FFF" xlink:href="#prefix__a"/>
    </g>
</svg>
