<svg xmlns="http://www.w3.org/2000/svg" xmlns:xlink="http://www.w3.org/1999/xlink" width="32" height="32" viewBox="0 0 32 32">
    <defs>
        <path id="prefix__a" d="M13.517 22c5.66 0 8.757-4.617 8.757-8.621 0-.131 0-.262-.01-.392.603-.429 1.123-.96 1.536-1.568-.562.245-1.158.406-1.768.477.643-.379 1.124-.975 1.353-1.676-.604.353-1.265.601-1.954.735-.954-.998-2.47-1.243-3.697-.596-1.228.647-1.862 2.024-1.547 3.36-2.475-.123-4.78-1.273-6.343-3.166-.817 1.384-.4 3.155.953 4.045-.49-.015-.969-.145-1.397-.38v.039c0 1.442 1.033 2.684 2.469 2.97-.453.122-.928.14-1.39.052.404 1.234 1.559 2.08 2.876 2.104-1.09.843-2.436 1.301-3.822 1.3-.245 0-.49-.015-.733-.044 1.407.89 3.045 1.36 4.717 1.359"/>
    </defs>
    <g fill="none" fill-rule="evenodd">
        <path d="M0 0H32V32H0z"/>
        <path d="M8 8H24V24H8z"/>
        <use fill="#000" xlink:href="#prefix__a"/>
    </g>
</svg>
