<svg xmlns="http://www.w3.org/2000/svg" xmlns:xlink="http://www.w3.org/1999/xlink" width="32" height="32" viewBox="0 0 32 32">
    <defs>
        <path id="prefix__a" d="M14.5 8.25c3.452 0 6.25 2.798 6.25 6.25 0 1.455-.497 2.794-1.331 3.856l4.111 4.114-1.06 1.06-4.114-4.111c-1.062.834-2.4 1.331-3.856 1.331-3.452 0-6.25-2.798-6.25-6.25s2.798-6.25 6.25-6.25zm0 1.5c-2.623 0-4.75 2.127-4.75 4.75s2.127 4.75 4.75 4.75 4.75-2.127 4.75-4.75-2.127-4.75-4.75-4.75z"/>
    </defs>
    <g fill="none" fill-rule="evenodd">
        <path d="M0 0H32V32H0z"/>
        <path d="M8 8H24V24H8z"/>
        <use fill="#000" xlink:href="#prefix__a"/>
    </g>
</svg>
